<svg width="19" height="19" viewBox="0 0 19 19" fill="none" xmlns="http://www.w3.org/2000/svg">
<path fill-rule="evenodd" clip-rule="evenodd" d="M6.04517 5.75C6.04517 4.95435 6.36124 4.19129 6.92385 3.62868C7.48645 3.06607 8.24952 2.75 9.04517 2.75C9.84082 2.75 10.6039 3.06607 11.1665 3.62868C11.7291 4.19129 12.0452 4.95435 12.0452 5.75C12.0452 6.54565 11.7291 7.30871 11.1665 7.87132C10.6039 8.43393 9.84082 8.75 9.04517 8.75C8.24952 8.75 7.48645 8.43393 6.92385 7.87132C6.36124 7.30871 6.04517 6.54565 6.04517 5.75ZM6.04517 10.25C5.0506 10.25 4.09678 10.6451 3.39352 11.3483C2.69025 12.0516 2.29517 13.0054 2.29517 14C2.29517 14.5967 2.53222 15.169 2.95418 15.591C3.37613 16.0129 3.94843 16.25 4.54517 16.25H13.5452C14.1419 16.25 14.7142 16.0129 15.1362 15.591C15.5581 15.169 15.7952 14.5967 15.7952 14C15.7952 13.0054 15.4001 12.0516 14.6968 11.3483C13.9936 10.6451 13.0397 10.25 12.0452 10.25H6.04517Z" fill="white" fill-opacity="0.5"/>
</svg>
