<svg width="19" height="19" viewBox="0 0 19 19" fill="none" xmlns="http://www.w3.org/2000/svg">
<g clip-path="url(#clip0_1051_28753)">
<circle cx="9.66675" cy="9.94775" r="9" fill="url(#paint0_linear_1051_28753)"/>
<path fill-rule="evenodd" clip-rule="evenodd" d="M8.20094 5.34766C8.35042 5.0941 8.51889 4.93848 8.81323 4.93848H10.6034C10.8977 4.93848 11.087 5.0941 11.2365 5.34766L14.997 12.6433C15.5905 13.7202 15.4853 13.8969 14.842 13.8969H12.5171C12.1976 13.3154 11.0558 11.192 11.0979 10.8809C11.1737 10.3218 12.057 8.86903 12.057 8.86903C12.2921 8.42845 11.9792 7.88998 11.4904 7.88998H7.92591C7.43717 7.88998 7.12711 8.42845 7.36218 8.86903C7.36218 8.86903 8.28748 10.3115 8.28748 10.8809C8.15606 11.7007 7.16899 13.3919 6.86586 13.8969H4.53309C3.88971 13.8969 3.94041 13.5332 4.41964 12.6433L8.20094 5.34766ZM9.68752 12.0055C9.68752 11.3923 10.2695 10.8207 10.8723 10.8207C10.2591 10.8207 9.68752 10.2699 9.68752 9.63594C9.68752 10.2699 9.1575 10.8207 8.50276 10.8207C9.14711 10.8207 9.68752 11.3923 9.68752 12.0055Z" fill="white"/>
</g>
<defs>
<linearGradient id="paint0_linear_1051_28753" x1="3.61825" y1="3.26531" x2="15.9855" y2="17.2122" gradientUnits="userSpaceOnUse">
<stop stop-color="#08B3EE"/>
<stop offset="0.619792" stop-color="#5745FA"/>
<stop offset="1" stop-color="#1714F4"/>
</linearGradient>
<clipPath id="clip0_1051_28753">
<rect width="18" height="18" fill="white" transform="translate(0.666748 0.947754)"/>
</clipPath>
</defs>
</svg>
