<svg width="19" height="19" viewBox="0 0 19 19" fill="none" xmlns="http://www.w3.org/2000/svg">
<g clip-path="url(#clip0_2750_8799)">
<path d="M16.7321 6.15378C16.7321 2.30876 13.0066 1.3812 12.2387 1.23084C12.146 1.21268 12.0538 1.20654 11.9593 1.20654H3.44967C2.54629 1.20654 1.81396 1.93887 1.81396 2.84225C1.81396 3.74562 2.54629 4.47795 3.44967 4.47795H11.9483C12.0501 4.47795 12.1523 4.48465 12.2488 4.51699C12.5739 4.62589 13.3248 5.01259 13.3475 6.26492C13.3677 7.37601 12.7587 7.91483 12.3847 8.14033C12.2054 8.24847 11.9946 8.27808 11.7852 8.27808H10.3773C9.52916 8.27808 8.84162 8.96563 8.84162 9.81376C8.84162 10.6619 9.52916 11.3494 10.3773 11.3494H11.9537C12.0519 11.3494 12.1502 11.3556 12.2438 11.3855C12.5652 11.4883 13.3185 11.8586 13.3185 13.0704C13.3185 14.1079 12.7663 14.6438 12.4058 14.8831C12.2149 15.0098 11.9841 15.0454 11.755 15.0454H3.50581C2.57143 15.0454 1.81396 15.8029 1.81396 16.7373C1.81396 17.6717 2.57143 18.4291 3.50581 18.4291H11.928C12.0433 18.4291 12.156 18.4199 12.2681 18.3932C13.095 18.1963 16.7143 17.1041 16.7321 13.0704C16.7346 12.4869 16.6327 11.9506 16.4879 11.4848C16.1532 10.4083 16.2391 8.97081 16.5257 7.88058C16.6484 7.41374 16.7321 6.84283 16.7321 6.15378Z" fill="white" fill-opacity="0.5"/>
<path fill-rule="evenodd" clip-rule="evenodd" d="M1.7222 18.477C1.75814 18.4774 1.79413 18.4777 1.83018 18.4777C6.55946 18.4777 10.3933 14.486 10.3933 9.75672C10.3933 5.02744 6.55943 1.1936 1.83015 1.1936C1.7941 1.1936 1.75811 1.19383 1.72217 1.19427V4.53755C1.75807 4.53683 1.79407 4.53646 1.83015 4.53646C4.71322 4.53646 7.05041 6.87365 7.05041 9.75672C7.05041 12.6398 4.71322 14.977 1.83015 14.977C1.79407 14.977 1.75807 14.9766 1.72217 14.9759L1.7222 18.477Z" fill="#808080"/>
</g>
<defs>
<clipPath id="clip0_2750_8799">
<rect width="18" height="18" fill="white" transform="translate(0.227051 0.811523)"/>
</clipPath>
</defs>
</svg>
