<svg width="19" height="19" viewBox="0 0 19 19" fill="none" xmlns="http://www.w3.org/2000/svg">
<g clip-path="url(#clip0_1051_28755)">
<path d="M18.3966 12.1248C17.1945 16.9463 12.3112 19.8806 7.48913 18.6782C2.66907 17.4762 -0.265211 12.5925 0.937414 7.77136C2.13891 2.94933 7.02226 0.0147714 11.8429 1.21683C16.6646 2.4189 19.5986 7.30308 18.3966 12.1248Z" fill="#F7931A"/>
<path d="M13.6351 8.66534C13.8142 7.46778 12.9024 6.824 11.6556 6.39453L12.0601 4.77228L11.0726 4.52618L10.6788 6.10568C10.4192 6.041 10.1526 5.97997 9.88768 5.9195L10.2842 4.32959L9.29733 4.0835L8.89261 5.70518C8.67774 5.65625 8.4668 5.60787 8.26205 5.55697L8.26318 5.5519L6.90136 5.21187L6.63868 6.26656C6.63868 6.26656 7.37133 6.43447 7.35586 6.44487C7.7558 6.54472 7.82808 6.80937 7.81599 7.01918L7.3553 8.86728C7.38286 8.87431 7.41858 8.88444 7.45796 8.90019C7.42505 8.89203 7.38989 8.88303 7.35361 8.87431L6.70786 11.4632C6.65893 11.5847 6.5349 11.767 6.25533 11.6978C6.26518 11.7121 5.53758 11.5186 5.53758 11.5186L5.04736 12.649L6.33239 12.9693C6.57146 13.0292 6.80574 13.0919 7.03636 13.151L6.62771 14.7918L7.61405 15.0379L8.01877 13.4145C8.28821 13.4877 8.54977 13.5552 8.80571 13.6187L8.4024 15.2345L9.38986 15.4806L9.79852 13.8429C11.4824 14.1615 12.7486 14.033 13.2815 12.51C13.711 11.2838 13.2601 10.5764 12.3742 10.1152C13.0194 9.9664 13.5054 9.542 13.6351 8.66534ZM11.3789 11.8291C11.0737 13.0554 9.00905 12.3925 8.33968 12.2262L8.88193 10.0525C9.5513 10.2195 11.6978 10.5503 11.3789 11.8291ZM11.6843 8.64762C11.4059 9.76306 9.68743 9.19634 9.12999 9.0574L9.62161 7.08584C10.1791 7.22478 11.9743 7.48409 11.6843 8.64762Z" fill="white"/>
</g>
<defs>
<clipPath id="clip0_1051_28755">
<rect width="18" height="18" fill="white" transform="translate(0.666748 0.947754)"/>
</clipPath>
</defs>
</svg>
