<svg width="19" height="19" viewBox="0 0 19 19" fill="none" xmlns="http://www.w3.org/2000/svg">
<path fill-rule="evenodd" clip-rule="evenodd" d="M9.15012 2.31152H12.0706C12.6133 2.31193 13.1432 2.47579 13.5914 2.78174C14.0395 3.08769 14.3851 3.52155 14.5831 4.02677C13.9224 3.93827 13.0989 3.93827 12.1419 3.93827H9.83937C8.88162 3.93827 8.05662 3.93827 7.39663 4.02677C6.68862 4.12277 6.00988 4.33802 5.45937 4.89077C4.90887 5.44352 4.69437 6.12452 4.59912 6.83552C4.51062 7.49852 4.51062 8.32727 4.51062 9.28802V13.0455C4.51062 13.842 4.51063 14.7983 4.56088 15.4808C3.58063 15.0743 2.89062 14.1053 2.89062 12.9743V8.59577C2.89062 7.26752 2.89062 6.21527 3.00088 5.39177C3.11413 4.54427 3.35337 3.85802 3.89262 3.31727C4.43112 2.77652 5.11437 2.53652 5.95887 2.42252C6.77862 2.31152 7.82712 2.31152 9.15012 2.31152ZM6.22363 5.65728C5.59063 6.29253 5.59063 7.31478 5.59063 9.35928V12.9743C5.59063 15.0188 5.59063 16.041 6.22363 16.6763C6.85588 17.3115 7.87438 17.3115 9.91063 17.3115H12.0706C14.1069 17.3115 15.1254 17.3115 15.7584 16.6763C16.3906 16.041 16.3906 15.0188 16.3906 12.9743V9.35928C16.3906 7.31478 16.3906 6.29253 15.7584 5.65728C15.1254 5.02203 14.1069 5.02203 12.0706 5.02203H9.91063C7.87363 5.02203 6.85588 5.02203 6.22363 5.65728Z" fill="white" fill-opacity="0.5"/>
</svg>
