<svg width="16" height="15" viewBox="0 0 16 15" fill="none" xmlns="http://www.w3.org/2000/svg">
<path fill-rule="evenodd" clip-rule="evenodd" d="M15.1273 0.225797C15.1967 0.257494 15.259 0.302939 15.3104 0.359385C15.515 0.583331 15.495 0.932081 15.2805 1.14618L14.8565 1.56806C14.8304 1.59431 14.7993 1.61515 14.7651 1.62936C14.7309 1.64358 14.6942 1.6509 14.6572 1.6509C14.6201 1.6509 14.5835 1.64358 14.5493 1.62936C14.515 1.61515 14.484 1.59431 14.4578 1.56806L14.0592 1.17009C14.0065 1.11735 13.9769 1.04584 13.9769 0.97128C13.9769 0.89672 14.0065 0.825211 14.0592 0.772471L14.4941 0.339698C14.5481 0.285793 14.6125 0.243404 14.6834 0.215091C14.7542 0.186778 14.8301 0.173129 14.9064 0.174969C14.9827 0.176809 15.0579 0.1941 15.1273 0.225797ZM6.83351 7.98653L13.1799 1.65138C13.2392 1.59223 13.3196 1.55902 13.4033 1.55902C13.4871 1.55902 13.5674 1.59223 13.6268 1.65138L13.9766 2.00294C14.0352 2.06218 14.068 2.14215 14.068 2.22548C14.068 2.30881 14.0352 2.38878 13.9766 2.44802L7.6414 8.79513C7.60308 8.83361 7.5555 8.86157 7.50324 8.87634L6.62961 9.16989C6.60588 9.17692 6.5807 9.17742 6.55672 9.17134C6.53273 9.16525 6.51084 9.1528 6.49334 9.1353C6.47584 9.1178 6.46339 9.09591 6.45731 9.07192C6.45122 9.04794 6.45172 9.02276 6.45875 8.99903L6.7523 8.1247C6.76707 8.07244 6.79503 8.02486 6.83351 7.98653ZM8.4377 9.5893L12.7229 5.29566C12.7622 5.25631 12.8123 5.22949 12.8669 5.21861C12.9214 5.20773 12.978 5.21327 13.0294 5.23453C13.0808 5.25579 13.1247 5.29182 13.1556 5.33806C13.1866 5.3843 13.2031 5.43867 13.2031 5.4943V12.8311C13.2031 13.3532 12.9957 13.854 12.6265 14.2232C12.2573 14.5924 11.7565 14.7998 11.2344 14.7998H2.79688C2.27473 14.7998 1.77397 14.5924 1.40476 14.2232C1.03555 13.854 0.828125 13.3532 0.828125 12.8311V4.39355C0.828125 3.87141 1.03555 3.37065 1.40476 3.00144C1.77397 2.63223 2.27473 2.4248 2.79688 2.4248H10.1336C10.1893 2.42483 10.2436 2.44135 10.2899 2.47228C10.3361 2.50321 10.3721 2.54715 10.3934 2.59856C10.4147 2.64996 10.4202 2.70652 10.4093 2.76107C10.3984 2.81562 10.3716 2.86573 10.3323 2.90504L6.03863 7.19094C5.87286 7.35663 5.74991 7.56019 5.68039 7.78402L5.37559 8.69457C5.31456 8.91067 5.31226 9.13912 5.36892 9.3564C5.42558 9.57368 5.53915 9.77193 5.69793 9.93071C5.8567 10.0895 6.05495 10.2031 6.27223 10.2597C6.48951 10.3164 6.71797 10.3141 6.93406 10.253L7.84461 9.94824C8.06851 9.87852 8.27207 9.75532 8.4377 9.5893Z" fill="white"/>
</svg>
