<svg width="14" height="15" viewBox="0 0 14 15" fill="none" xmlns="http://www.w3.org/2000/svg">
<path d="M2.33981 12.8091H11.6602C11.8116 12.8091 11.9604 12.7698 12.092 12.695C12.2237 12.6203 12.3337 12.5127 12.4113 12.3827C12.4889 12.2528 12.5315 12.1049 12.5348 11.9535C12.5382 11.8022 12.5022 11.6526 12.4305 11.5193L7.77055 2.86498C7.43996 2.25139 6.56004 2.25139 6.22946 2.86498L1.56954 11.5193C1.49777 11.6526 1.46182 11.8022 1.46518 11.9535C1.46855 12.1049 1.51112 12.2528 1.58873 12.3827C1.66635 12.5127 1.77636 12.6203 1.908 12.695C2.03965 12.7698 2.18843 12.8091 2.33981 12.8091Z" stroke="#DD524C" stroke-linecap="round" stroke-linejoin="round"/>
<path d="M6.843 5.94957L6.99995 9.28551L7.15663 5.95094C7.1576 5.92962 7.15421 5.90833 7.14667 5.88836C7.13913 5.8684 7.1276 5.85019 7.11278 5.83483C7.09797 5.81947 7.08017 5.8073 7.06049 5.79906C7.04081 5.79081 7.01965 5.78666 6.99831 5.78687C6.97735 5.78708 6.95664 5.79148 6.9374 5.79982C6.91817 5.80816 6.9008 5.82028 6.88632 5.83544C6.87184 5.85061 6.86055 5.86852 6.85311 5.88812C6.84567 5.90772 6.84223 5.92862 6.843 5.94957Z" stroke="#DD524C" stroke-linecap="round" stroke-linejoin="round"/>
<path d="M7 11.4692C6.89184 11.4692 6.78611 11.4372 6.69617 11.3771C6.60624 11.317 6.53615 11.2316 6.49475 11.1316C6.45336 11.0317 6.44253 10.9218 6.46363 10.8157C6.48473 10.7096 6.53682 10.6121 6.6133 10.5357C6.68978 10.4592 6.78723 10.4071 6.89331 10.386C6.99939 10.3649 7.10935 10.3757 7.20928 10.4171C7.30921 10.4585 7.39462 10.5286 7.45471 10.6185C7.5148 10.7085 7.54688 10.8142 7.54688 10.9224C7.54688 11.0674 7.48926 11.2065 7.3867 11.3091C7.28414 11.4116 7.14504 11.4692 7 11.4692Z" fill="#DD524C"/>
</svg>
