<svg width="16" height="16" viewBox="0 0 16 16" fill="none" xmlns="http://www.w3.org/2000/svg">
<path d="M6.79043 2.5874H9.49043C9.49043 2.22936 9.3482 1.88598 9.09502 1.63281C8.84185 1.37963 8.49847 1.2374 8.14043 1.2374C7.78239 1.2374 7.43901 1.37963 7.18584 1.63281C6.93266 1.88598 6.79043 2.22936 6.79043 2.5874ZM5.89043 2.5874C5.89043 1.99067 6.12748 1.41837 6.54944 0.996412C6.9714 0.574455 7.54369 0.337402 8.14043 0.337402C8.73717 0.337402 9.30946 0.574455 9.73142 0.996412C10.1534 1.41837 10.3904 1.99067 10.3904 2.5874H14.8904C15.0098 2.5874 15.1242 2.63481 15.2086 2.7192C15.293 2.8036 15.3404 2.91805 15.3404 3.0374C15.3404 3.15675 15.293 3.27121 15.2086 3.3556C15.1242 3.43999 15.0098 3.4874 14.8904 3.4874H13.9418L12.8672 12.797C12.7913 13.4551 12.476 14.0623 11.9815 14.503C11.487 14.9438 10.8477 15.1874 10.1852 15.1874H6.09563C5.43319 15.1874 4.79388 14.9438 4.29935 14.503C3.80482 14.0623 3.48959 13.4551 3.41363 12.797L2.33903 3.4874H1.39043C1.27108 3.4874 1.15662 3.43999 1.07223 3.3556C0.98784 3.27121 0.94043 3.15675 0.94043 3.0374C0.94043 2.91805 0.98784 2.8036 1.07223 2.7192C1.15662 2.63481 1.27108 2.5874 1.39043 2.5874H5.89043ZM7.24043 6.1874C7.24043 6.06805 7.19302 5.9536 7.10863 5.8692C7.02424 5.78481 6.90978 5.7374 6.79043 5.7374C6.67108 5.7374 6.55662 5.78481 6.47223 5.8692C6.38784 5.9536 6.34043 6.06805 6.34043 6.1874V11.5874C6.34043 11.7067 6.38784 11.8212 6.47223 11.9056C6.55662 11.99 6.67108 12.0374 6.79043 12.0374C6.90978 12.0374 7.02424 11.99 7.10863 11.9056C7.19302 11.8212 7.24043 11.7067 7.24043 11.5874V6.1874ZM9.49043 5.7374C9.37108 5.7374 9.25662 5.78481 9.17223 5.8692C9.08784 5.9536 9.04043 6.06805 9.04043 6.1874V11.5874C9.04043 11.7067 9.08784 11.8212 9.17223 11.9056C9.25662 11.99 9.37108 12.0374 9.49043 12.0374C9.60978 12.0374 9.72424 11.99 9.80863 11.9056C9.89302 11.8212 9.94043 11.7067 9.94043 11.5874V6.1874C9.94043 6.06805 9.89302 5.9536 9.80863 5.8692C9.72424 5.78481 9.60978 5.7374 9.49043 5.7374Z" fill="white" fill-opacity="0.5"/>
</svg>
