<svg width="21" height="20" viewBox="0 0 21 20" fill="none" xmlns="http://www.w3.org/2000/svg">
<path fill-rule="evenodd" clip-rule="evenodd" d="M14.7702 8.94875C14.5944 8.77319 14.3561 8.67457 14.1077 8.67457C13.8592 8.67457 13.6209 8.77319 13.4452 8.94875L10.9827 11.4112V2.1875C10.9827 1.93886 10.8839 1.7004 10.7081 1.52459C10.5323 1.34877 10.2938 1.25 10.0452 1.25C9.79653 1.25 9.55807 1.34877 9.38225 1.52459C9.20644 1.7004 9.10767 1.93886 9.10767 2.1875V11.4112L6.64517 8.94875C6.46745 8.78315 6.23239 8.693 5.98951 8.69728C5.74664 8.70157 5.5149 8.79996 5.34314 8.97172C5.17137 9.14349 5.07298 9.37522 5.0687 9.6181C5.06441 9.86097 5.15457 10.096 5.32017 10.2738L9.38267 14.3363L10.0452 15L10.7077 14.3375L14.7702 10.275C14.8573 10.1879 14.9264 10.0846 14.9735 9.97078C15.0207 9.857 15.045 9.73504 15.045 9.61187C15.045 9.48871 15.0207 9.36675 14.9735 9.25297C14.9264 9.13919 14.8573 9.03581 14.7702 8.94875ZM3.17017 12.1875C3.17017 12.0644 3.14592 11.9425 3.0988 11.8287C3.05169 11.715 2.98263 11.6116 2.89558 11.5246C2.80852 11.4375 2.70517 11.3685 2.59143 11.3214C2.47769 11.2743 2.35578 11.25 2.23267 11.25C2.10955 11.25 1.98764 11.2743 1.8739 11.3214C1.76016 11.3685 1.65681 11.4375 1.56975 11.5246C1.4827 11.6116 1.41364 11.715 1.36653 11.8287C1.31942 11.9425 1.29517 12.0644 1.29517 12.1875V16.25C1.29517 16.913 1.55856 17.5489 2.0274 18.0178C2.49624 18.4866 3.13212 18.75 3.79517 18.75H16.2952C16.9582 18.75 17.5941 18.4866 18.0629 18.0178C18.5318 17.5489 18.7952 16.913 18.7952 16.25V12.1875C18.7952 11.9389 18.6964 11.7004 18.5206 11.5246C18.3448 11.3488 18.1063 11.25 17.8577 11.25C17.609 11.25 17.3706 11.3488 17.1948 11.5246C17.0189 11.7004 16.9202 11.9389 16.9202 12.1875V16.25C16.9202 16.4158 16.8543 16.5747 16.7371 16.6919C16.6199 16.8092 16.4609 16.875 16.2952 16.875H3.79517C3.62941 16.875 3.47043 16.8092 3.35322 16.6919C3.23601 16.5747 3.17017 16.4158 3.17017 16.25V12.1875Z" fill="black"/>
</svg>
