<svg width="19" height="19" viewBox="0 0 19 19" fill="none" xmlns="http://www.w3.org/2000/svg">
<path fill-rule="evenodd" clip-rule="evenodd" d="M3.80312 1.5C2.27995 1.5 1.04517 2.74252 1.04517 4.27524V14.7248C1.04517 16.2575 2.27995 17.5 3.80313 17.5H14.2872C15.8104 17.5 17.0452 16.2575 17.0452 14.7248V4.27524C17.0452 2.74252 15.8104 1.5 14.2872 1.5H3.80312ZM5.72192 5.41668H12.1707C12.6715 5.41668 12.9609 5.98824 12.6666 6.39591L10.6807 9.14628C10.4927 9.40659 10.1374 9.47775 9.86474 9.3097L5.40183 6.55933C4.87424 6.23419 5.10325 5.41668 5.72192 5.41668ZM8.26375 9.56317L12.7494 12.3626C13.2736 12.6897 13.0432 13.5034 12.4264 13.5034H5.6332C5.11423 13.5034 4.83015 12.8949 5.16147 12.493L7.469 9.69355C7.6644 9.4565 8.00364 9.40085 8.26375 9.56317Z" fill="white" fill-opacity="0.5"/>
</svg>
