<svg width="32" height="32" viewBox="0 0 32 32" fill="none" xmlns="http://www.w3.org/2000/svg">
<path d="M0.759861 10.7383L0.759839 7.81475L4.60798 7.01515C5.7119 7.12379 6.15197 7.39972 6.63194 8.23954C6.9964 7.21454 7.44105 6.81645 8.55623 6.34046L12.7291 5.61582L12.7291 8.56437C12.5245 9.28994 12.2721 9.57119 11.6295 9.86376L2.15917 11.6879C1.46094 11.6504 1.11327 11.5327 0.759861 10.7383Z" fill="white"/>
<path fill-rule="evenodd" clip-rule="evenodd" d="M27.3155 8.00122L5.50269 11.9382C5.6977 16.408 7.63684 20.3653 13.0792 21.3951L29.3901 21.3017L31.5716 13.3214C32.1243 10.9131 30.7828 8.32586 27.3155 8.00122ZM26.6571 13.8593C27.3322 13.8593 27.8795 13.312 27.8795 12.6369C27.8795 11.9618 27.3322 11.4145 26.6571 11.4145C25.982 11.4145 25.4347 11.9618 25.4347 12.6369C25.4347 13.312 25.982 13.8593 26.6571 13.8593Z" fill="white"/>
</svg>
