<svg width="25" height="25" viewBox="0 0 25 25" fill="none" xmlns="http://www.w3.org/2000/svg">
<rect x="0.140625" y="0.870117" width="24" height="24" rx="12" fill="white" fill-opacity="0.1"/>
<path d="M17.454 9.15646L12.1406 6.20312L6.82729 9.15646L10.2073 11.0298C10.694 10.5231 11.3806 10.2031 12.1406 10.2031C12.9006 10.2031 13.5873 10.5231 14.074 11.0298L17.454 9.15646ZM10.8073 12.8698C10.8073 12.1365 11.4073 11.5365 12.1406 11.5365C12.874 11.5365 13.474 12.1365 13.474 12.8698C13.474 13.6031 12.874 14.2031 12.1406 14.2031C11.4073 14.2031 10.8073 13.6031 10.8073 12.8698ZM11.474 19.1631L6.14062 16.2031V10.2965L9.56063 12.1965C9.50063 12.4098 9.47396 12.6365 9.47396 12.8698C9.47396 14.1098 10.3206 15.1565 11.474 15.4498V19.1631ZM12.8073 19.1631V15.4498C13.9606 15.1565 14.8073 14.1098 14.8073 12.8698C14.8073 12.6365 14.7806 12.4098 14.7206 12.1965L18.1406 10.2965V16.2031L12.8073 19.1631Z" fill="white" fill-opacity="0.5"/>
</svg>
