<svg width="217" height="47" viewBox="0 0 217 47" fill="none" xmlns="http://www.w3.org/2000/svg">
<rect x="158.045" y="0.5" width="35" height="14" rx="7" fill="#5200FF"/>
<path d="M164.793 10.5H163.861L165.955 4.68182H166.969L169.063 10.5H168.131L166.486 5.73864H166.441L164.793 10.5ZM164.949 8.22159H167.972V8.96023H164.949V8.22159ZM171.398 10.5852C171.046 10.5852 170.731 10.4953 170.455 10.3153C170.18 10.1335 169.964 9.875 169.807 9.53977C169.652 9.20265 169.574 8.7983 169.574 8.3267C169.574 7.85511 169.653 7.4517 169.81 7.11648C169.969 6.78125 170.187 6.52462 170.463 6.34659C170.74 6.16856 171.053 6.07955 171.404 6.07955C171.675 6.07955 171.892 6.125 172.057 6.21591C172.224 6.30492 172.353 6.40909 172.444 6.52841C172.536 6.64773 172.608 6.75284 172.66 6.84375H172.711V4.68182H173.56V10.5H172.731V9.82102H172.66C172.608 9.91383 172.535 10.0199 172.438 10.1392C172.343 10.2585 172.213 10.3627 172.046 10.4517C171.879 10.5407 171.663 10.5852 171.398 10.5852ZM171.586 9.8608C171.83 9.8608 172.036 9.7964 172.205 9.66761C172.375 9.53693 172.504 9.35606 172.591 9.125C172.68 8.89394 172.725 8.625 172.725 8.31818C172.725 8.01515 172.681 7.75 172.594 7.52273C172.507 7.29545 172.379 7.11837 172.211 6.99148C172.042 6.86458 171.834 6.80114 171.586 6.80114C171.33 6.80114 171.117 6.86742 170.946 7C170.776 7.13258 170.647 7.31345 170.56 7.54261C170.475 7.77178 170.432 8.0303 170.432 8.31818C170.432 8.60985 170.476 8.87216 170.563 9.10511C170.65 9.33807 170.779 9.52273 170.949 9.65909C171.122 9.79356 171.334 9.8608 171.586 9.8608ZM174.772 10.5V6.13636H175.588V6.84659H175.642C175.733 6.60606 175.881 6.41856 176.088 6.28409C176.294 6.14773 176.541 6.07955 176.829 6.07955C177.121 6.07955 177.365 6.14773 177.562 6.28409C177.761 6.42045 177.908 6.60795 178.003 6.84659H178.048C178.152 6.61364 178.318 6.42803 178.545 6.28977C178.772 6.14962 179.043 6.07955 179.358 6.07955C179.753 6.07955 180.076 6.2036 180.326 6.4517C180.578 6.69981 180.704 7.07386 180.704 7.57386V10.5H179.855V7.65341C179.855 7.35795 179.774 7.14394 179.613 7.01136C179.452 6.87879 179.26 6.8125 179.037 6.8125C178.76 6.8125 178.545 6.89773 178.392 7.06818C178.238 7.23674 178.162 7.4536 178.162 7.71875V10.5H177.315V7.59943C177.315 7.36269 177.241 7.17235 177.093 7.02841C176.946 6.88447 176.753 6.8125 176.517 6.8125C176.356 6.8125 176.207 6.85511 176.071 6.94034C175.936 7.02367 175.827 7.14015 175.744 7.28977C175.663 7.43939 175.622 7.61269 175.622 7.80966V10.5H174.772ZM181.843 10.5V6.13636H182.692V10.5H181.843ZM182.272 5.46307C182.124 5.46307 181.997 5.41383 181.891 5.31534C181.787 5.21496 181.735 5.09564 181.735 4.95739C181.735 4.81723 181.787 4.69792 181.891 4.59943C181.997 4.49905 182.124 4.44886 182.272 4.44886C182.419 4.44886 182.545 4.49905 182.65 4.59943C182.756 4.69792 182.809 4.81723 182.809 4.95739C182.809 5.09564 182.756 5.21496 182.65 5.31534C182.545 5.41383 182.419 5.46307 182.272 5.46307ZM184.684 7.90909V10.5H183.835V6.13636H184.65V6.84659H184.704C184.805 6.61553 184.962 6.42992 185.176 6.28977C185.392 6.14962 185.664 6.07955 185.991 6.07955C186.289 6.07955 186.549 6.14205 186.772 6.26705C186.996 6.39015 187.169 6.57386 187.292 6.81818C187.415 7.0625 187.477 7.36458 187.477 7.72443V10.5H186.628V7.8267C186.628 7.51042 186.545 7.26326 186.38 7.08523C186.216 6.9053 185.989 6.81534 185.701 6.81534C185.504 6.81534 185.329 6.85795 185.176 6.94318C185.024 7.02841 184.904 7.15341 184.815 7.31818C184.728 7.48106 184.684 7.67803 184.684 7.90909Z" fill="white"/>
<path d="M6.11313 29.8432L6.11311 26.9196L9.96125 26.12C11.0652 26.2286 11.5052 26.5046 11.9852 27.3444C12.3497 26.3194 12.7943 25.9213 13.9095 25.4453L18.0824 24.7207L18.0824 27.6692C17.8778 28.3948 17.6254 28.676 16.9828 28.9686L7.51244 30.7927C6.81421 30.7553 6.46654 30.6375 6.11313 29.8432Z" fill="white"/>
<path fill-rule="evenodd" clip-rule="evenodd" d="M32.6687 27.106L10.856 31.043C11.051 35.5129 12.9901 39.4701 18.4325 40.5L34.7434 40.4065L36.9249 32.4262C37.4776 30.0179 36.136 27.4307 32.6687 27.106ZM32.0104 32.9641C32.6855 32.9641 33.2328 32.4168 33.2328 31.7417C33.2328 31.0666 32.6855 30.5194 32.0104 30.5194C31.3353 30.5194 30.788 31.0666 30.788 31.7417C30.788 32.4168 31.3353 32.9641 32.0104 32.9641Z" fill="white"/>
<path d="M49.6872 40.76C48.9938 40.76 48.3352 40.6733 47.7112 40.5C47.1045 40.3093 46.5412 40.0493 46.0212 39.72C45.5012 39.3733 45.0505 38.966 44.6692 38.498L46.1772 36.99C46.6278 37.5447 47.1478 37.9607 47.7372 38.238C48.3265 38.498 48.9852 38.628 49.7132 38.628C50.4412 38.628 51.0045 38.5067 51.4032 38.264C51.8018 38.004 52.0012 37.6487 52.0012 37.198C52.0012 36.7473 51.8365 36.4007 51.5072 36.158C51.1952 35.898 50.7878 35.69 50.2852 35.534C49.7825 35.3607 49.2452 35.196 48.6732 35.04C48.1185 34.8667 47.5898 34.65 47.0872 34.39C46.5845 34.13 46.1685 33.7747 45.8392 33.324C45.5272 32.8733 45.3712 32.2753 45.3712 31.53C45.3712 30.7847 45.5532 30.1433 45.9172 29.606C46.2812 29.0513 46.7838 28.6267 47.4252 28.332C48.0838 28.0373 48.8725 27.89 49.7912 27.89C50.7618 27.89 51.6198 28.0633 52.3652 28.41C53.1278 28.7393 53.7518 29.242 54.2372 29.918L52.7292 31.426C52.3825 30.9753 51.9492 30.6287 51.4292 30.386C50.9265 30.1433 50.3545 30.022 49.7132 30.022C49.0372 30.022 48.5172 30.1433 48.1532 30.386C47.8065 30.6113 47.6332 30.932 47.6332 31.348C47.6332 31.764 47.7892 32.0847 48.1012 32.31C48.4132 32.5353 48.8205 32.726 49.3232 32.882C49.8432 33.038 50.3805 33.2027 50.9352 33.376C51.4898 33.532 52.0185 33.7487 52.5212 34.026C53.0238 34.3033 53.4312 34.676 53.7432 35.144C54.0725 35.612 54.2372 36.2273 54.2372 36.99C54.2372 38.1513 53.8212 39.07 52.9892 39.746C52.1745 40.422 51.0738 40.76 49.6872 40.76ZM56.8569 40.5V28.15H59.1969V40.5H56.8569ZM65.2029 40.5V33.038C65.2029 32.1193 64.9169 31.4 64.3449 30.88C63.7902 30.3427 63.0882 30.074 62.2389 30.074C61.6669 30.074 61.1555 30.1953 60.7049 30.438C60.2542 30.6807 59.8902 31.0187 59.6129 31.452C59.3355 31.8853 59.1969 32.4053 59.1969 33.012L58.2349 32.544C58.2349 31.608 58.4342 30.7933 58.8329 30.1C59.2489 29.4067 59.8122 28.8693 60.5229 28.488C61.2335 28.0893 62.0309 27.89 62.9149 27.89C63.7815 27.89 64.5615 28.0807 65.2549 28.462C65.9655 28.8433 66.5202 29.3807 66.9189 30.074C67.3349 30.7673 67.5429 31.5907 67.5429 32.544V40.5H65.2029ZM73.5489 40.5V33.038C73.5489 32.1193 73.2629 31.4 72.6909 30.88C72.1362 30.3427 71.4429 30.074 70.6109 30.074C70.0389 30.074 69.5189 30.1953 69.0509 30.438C68.6002 30.6807 68.2362 31.0187 67.9589 31.452C67.6815 31.8853 67.5429 32.4053 67.5429 33.012L66.2169 32.544C66.2689 31.5907 66.5202 30.776 66.9709 30.1C67.4389 29.4067 68.0369 28.8693 68.7649 28.488C69.4929 28.0893 70.2902 27.89 71.1569 27.89C72.0582 27.89 72.8642 28.0807 73.5749 28.462C74.2855 28.8433 74.8489 29.3807 75.2649 30.074C75.6982 30.7673 75.9149 31.5993 75.9149 32.57V40.5H73.5489ZM84.3511 40.76C83.2244 40.76 82.2017 40.4827 81.2831 39.928C80.3644 39.356 79.6364 38.5847 79.0991 37.614C78.5791 36.6433 78.3191 35.5513 78.3191 34.338C78.3191 33.1247 78.5791 32.0327 79.0991 31.062C79.6364 30.0913 80.3557 29.32 81.2571 28.748C82.1757 28.176 83.2071 27.89 84.3511 27.89C85.2871 27.89 86.1191 28.0893 86.8471 28.488C87.5924 28.8693 88.1904 29.4067 88.6411 30.1C89.0917 30.776 89.3431 31.5647 89.3951 32.466V36.184C89.3431 37.068 89.0917 37.8567 88.6411 38.55C88.2077 39.2433 87.6184 39.7893 86.8731 40.188C86.1451 40.5693 85.3044 40.76 84.3511 40.76ZM84.7411 38.55C85.9024 38.55 86.8384 38.16 87.5491 37.38C88.2597 36.5827 88.6151 35.5687 88.6151 34.338C88.6151 33.4887 88.4504 32.752 88.1211 32.128C87.8091 31.4867 87.3584 30.9927 86.7691 30.646C86.1797 30.282 85.4951 30.1 84.7151 30.1C83.9351 30.1 83.2417 30.282 82.6351 30.646C82.0457 31.01 81.5777 31.5127 81.2311 32.154C80.9017 32.778 80.7371 33.4973 80.7371 34.312C80.7371 35.144 80.9017 35.8807 81.2311 36.522C81.5777 37.146 82.0544 37.64 82.6611 38.004C83.2677 38.368 83.9611 38.55 84.7411 38.55ZM88.4591 40.5V37.172L88.9011 34.156L88.4591 31.166V28.15H90.8251V40.5H88.4591ZM94.2319 40.5V28.15H96.5719V40.5H94.2319ZM96.5719 33.454L95.6879 33.064C95.6879 31.4867 96.0519 30.23 96.7799 29.294C97.5079 28.358 98.5565 27.89 99.9259 27.89C100.55 27.89 101.113 28.0027 101.616 28.228C102.119 28.436 102.587 28.7913 103.02 29.294L101.486 30.88C101.226 30.6027 100.94 30.4033 100.628 30.282C100.316 30.1607 99.9519 30.1 99.5359 30.1C98.6692 30.1 97.9585 30.3773 97.4039 30.932C96.8492 31.4867 96.5719 32.3273 96.5719 33.454ZM106.515 40.5V22.976H108.855V40.5H106.515ZM103.473 30.282V28.15H111.897V30.282H103.473Z" fill="white"/>
<path d="M118.297 40.5L113.409 28.15H115.853L119.389 37.77H118.609L122.119 28.15H123.471L126.981 37.77H126.201L129.737 28.15H132.181L127.319 40.5H125.941L122.379 31.166H123.237L119.649 40.5H118.297ZM142.997 40.5V33.298C142.997 32.362 142.702 31.5907 142.113 30.984C141.524 30.3773 140.761 30.074 139.825 30.074C139.201 30.074 138.646 30.2127 138.161 30.49C137.676 30.7673 137.294 31.1487 137.017 31.634C136.74 32.1193 136.601 32.674 136.601 33.298L135.639 32.752C135.639 31.816 135.847 30.984 136.263 30.256C136.679 29.528 137.26 28.956 138.005 28.54C138.75 28.1067 139.591 27.89 140.527 27.89C141.463 27.89 142.286 28.098 142.997 28.514C143.725 28.93 144.297 29.5107 144.713 30.256C145.129 31.0013 145.337 31.8593 145.337 32.83V40.5H142.997ZM134.261 40.5V21.936H136.601V40.5H134.261ZM153.757 40.76C152.631 40.76 151.608 40.4827 150.689 39.928C149.771 39.356 149.043 38.5847 148.505 37.614C147.985 36.6433 147.725 35.5513 147.725 34.338C147.725 33.1247 147.985 32.0327 148.505 31.062C149.043 30.0913 149.762 29.32 150.663 28.748C151.582 28.176 152.613 27.89 153.757 27.89C154.693 27.89 155.525 28.0893 156.253 28.488C156.999 28.8693 157.597 29.4067 158.047 30.1C158.498 30.776 158.749 31.5647 158.801 32.466V36.184C158.749 37.068 158.498 37.8567 158.047 38.55C157.614 39.2433 157.025 39.7893 156.279 40.188C155.551 40.5693 154.711 40.76 153.757 40.76ZM154.147 38.55C155.309 38.55 156.245 38.16 156.955 37.38C157.666 36.5827 158.021 35.5687 158.021 34.338C158.021 33.4887 157.857 32.752 157.527 32.128C157.215 31.4867 156.765 30.9927 156.175 30.646C155.586 30.282 154.901 30.1 154.121 30.1C153.341 30.1 152.648 30.282 152.041 30.646C151.452 31.01 150.984 31.5127 150.637 32.154C150.308 32.778 150.143 33.4973 150.143 34.312C150.143 35.144 150.308 35.8807 150.637 36.522C150.984 37.146 151.461 37.64 152.067 38.004C152.674 38.368 153.367 38.55 154.147 38.55ZM157.865 40.5V37.172L158.307 34.156L157.865 31.166V28.15H160.231V40.5H157.865ZM163.638 40.5V21.936H165.978V40.5H163.638ZM175.122 40.76C173.891 40.76 172.782 40.4827 171.794 39.928C170.806 39.356 170.026 38.5847 169.454 37.614C168.882 36.6433 168.596 35.5427 168.596 34.312C168.596 33.0987 168.873 32.0067 169.428 31.036C170 30.0653 170.762 29.3027 171.716 28.748C172.686 28.176 173.77 27.89 174.966 27.89C176.11 27.89 177.115 28.15 177.982 28.67C178.866 29.19 179.55 29.9093 180.036 30.828C180.538 31.7467 180.79 32.7867 180.79 33.948C180.79 34.1213 180.781 34.312 180.764 34.52C180.746 34.7107 180.712 34.936 180.66 35.196H170.234V33.246H179.412L178.554 34C178.554 33.168 178.406 32.466 178.112 31.894C177.817 31.3047 177.401 30.854 176.864 30.542C176.326 30.2127 175.676 30.048 174.914 30.048C174.116 30.048 173.414 30.2213 172.808 30.568C172.201 30.9147 171.733 31.4 171.404 32.024C171.074 32.648 170.91 33.3847 170.91 34.234C170.91 35.1007 171.083 35.8633 171.43 36.522C171.776 37.1633 172.27 37.666 172.912 38.03C173.553 38.3767 174.29 38.55 175.122 38.55C175.815 38.55 176.448 38.4287 177.02 38.186C177.609 37.9433 178.112 37.5793 178.528 37.094L180.036 38.628C179.446 39.3213 178.718 39.85 177.852 40.214C177.002 40.578 176.092 40.76 175.122 40.76ZM187.267 40.76C186.574 40.76 185.915 40.6733 185.291 40.5C184.685 40.3093 184.121 40.0493 183.601 39.72C183.081 39.3733 182.631 38.966 182.249 38.498L183.757 36.99C184.208 37.5447 184.728 37.9607 185.317 38.238C185.907 38.498 186.565 38.628 187.293 38.628C188.021 38.628 188.585 38.5067 188.983 38.264C189.382 38.004 189.581 37.6487 189.581 37.198C189.581 36.7473 189.417 36.4007 189.087 36.158C188.775 35.898 188.368 35.69 187.865 35.534C187.363 35.3607 186.825 35.196 186.253 35.04C185.699 34.8667 185.17 34.65 184.667 34.39C184.165 34.13 183.749 33.7747 183.419 33.324C183.107 32.8733 182.951 32.2753 182.951 31.53C182.951 30.7847 183.133 30.1433 183.497 29.606C183.861 29.0513 184.364 28.6267 185.005 28.332C185.664 28.0373 186.453 27.89 187.371 27.89C188.342 27.89 189.2 28.0633 189.945 28.41C190.708 28.7393 191.332 29.242 191.817 29.918L190.309 31.426C189.963 30.9753 189.529 30.6287 189.009 30.386C188.507 30.1433 187.935 30.022 187.293 30.022C186.617 30.022 186.097 30.1433 185.733 30.386C185.387 30.6113 185.213 30.932 185.213 31.348C185.213 31.764 185.369 32.0847 185.681 32.31C185.993 32.5353 186.401 32.726 186.903 32.882C187.423 33.038 187.961 33.2027 188.515 33.376C189.07 33.532 189.599 33.7487 190.101 34.026C190.604 34.3033 191.011 34.676 191.323 35.144C191.653 35.612 191.817 36.2273 191.817 36.99C191.817 38.1513 191.401 39.07 190.569 39.746C189.755 40.422 188.654 40.76 187.267 40.76Z" fill="white" fill-opacity="0.7"/>
<path d="M194.785 40.7583C194.561 40.7583 194.373 40.6823 194.221 40.5303C194.077 40.3703 194.005 40.1823 194.005 39.9663C194.005 39.7423 194.077 39.5583 194.221 39.4143C194.373 39.2623 194.561 39.1863 194.785 39.1863C195.009 39.1863 195.193 39.2623 195.337 39.4143C195.489 39.5583 195.565 39.7423 195.565 39.9663C195.565 40.1823 195.489 40.3703 195.337 40.5303C195.193 40.6823 195.009 40.7583 194.785 40.7583ZM199.507 40.7583C198.987 40.7583 198.515 40.6303 198.091 40.3743C197.667 40.1103 197.331 39.7543 197.083 39.3063C196.843 38.8583 196.723 38.3543 196.723 37.7943C196.723 37.2343 196.843 36.7303 197.083 36.2823C197.331 35.8343 197.663 35.4783 198.079 35.2143C198.503 34.9503 198.979 34.8183 199.507 34.8183C199.939 34.8183 200.323 34.9103 200.659 35.0943C201.003 35.2703 201.279 35.5183 201.487 35.8383C201.695 36.1503 201.811 36.5143 201.835 36.9303V38.6463C201.811 39.0543 201.695 39.4183 201.487 39.7383C201.287 40.0583 201.015 40.3103 200.671 40.4943C200.335 40.6703 199.947 40.7583 199.507 40.7583ZM199.687 39.7383C200.223 39.7383 200.655 39.5583 200.983 39.1983C201.311 38.8303 201.475 38.3623 201.475 37.7943C201.475 37.4023 201.399 37.0623 201.247 36.7743C201.103 36.4783 200.895 36.2503 200.623 36.0903C200.351 35.9223 200.035 35.8383 199.675 35.8383C199.315 35.8383 198.995 35.9223 198.715 36.0903C198.443 36.2583 198.227 36.4903 198.067 36.7863C197.915 37.0743 197.839 37.4063 197.839 37.7823C197.839 38.1663 197.915 38.5063 198.067 38.8023C198.227 39.0903 198.447 39.3183 198.727 39.4863C199.007 39.6543 199.327 39.7383 199.687 39.7383ZM201.403 40.6383V39.1023L201.607 37.7103L201.403 36.3303V34.9383H202.495V40.6383H201.403ZM204.08 40.6383V34.9383H205.16V40.6383H204.08ZM204.62 33.7983C204.42 33.7983 204.256 33.7343 204.128 33.6063C204 33.4703 203.936 33.3023 203.936 33.1023C203.936 32.9103 204 32.7503 204.128 32.6223C204.256 32.4863 204.42 32.4183 204.62 32.4183C204.82 32.4183 204.984 32.4863 205.112 32.6223C205.24 32.7503 205.304 32.9103 205.304 33.1023C205.304 33.3023 205.24 33.4703 205.112 33.6063C204.984 33.7343 204.82 33.7983 204.62 33.7983Z" fill="#5200FF"/>
</svg>
