<svg width="32" height="17" viewBox="0 0 32 17" fill="none" xmlns="http://www.w3.org/2000/svg">
<path d="M0.587498 5.93922L0.587475 3.01567L4.43561 2.21607C5.53954 2.32472 5.9796 2.60065 6.45958 3.44047C6.82403 2.41547 7.26869 2.01737 8.38386 1.54139L12.5568 0.81675L12.5568 3.7653C12.3521 4.49087 12.0997 4.77211 11.4572 5.06469L1.98681 6.88881C1.28858 6.85134 0.940905 6.73359 0.587498 5.93922Z" fill="white"/>
<path fill-rule="evenodd" clip-rule="evenodd" d="M27.1431 3.20215L5.33032 7.13911C5.52533 11.609 7.46448 15.5662 12.9069 16.5961L29.2177 16.5026L31.3992 8.52233C31.9519 6.11402 30.6104 3.52679 27.1431 3.20215ZM26.4847 9.0602C27.1598 9.0602 27.7071 8.51292 27.7071 7.83783C27.7071 7.16273 27.1598 6.61546 26.4847 6.61546C25.8097 6.61546 25.2624 7.16273 25.2624 7.83783C25.2624 8.51292 25.8097 9.0602 26.4847 9.0602Z" fill="white"/>
</svg>
