<svg width="25" height="25" viewBox="0 0 25 25" fill="none" xmlns="http://www.w3.org/2000/svg">
<rect x="0.140625" y="0.987305" width="24" height="24" rx="12" fill="white" fill-opacity="0.1"/>
<g clip-path="url(#clip0_2386_63717)">
<path d="M6.14046 17.6536C5.7738 17.6536 5.4598 17.523 5.19846 17.2616C4.93713 17.0003 4.80669 16.6865 4.80713 16.3203V9.65365C4.80713 9.28698 4.9378 8.97298 5.19913 8.71165C5.46046 8.45031 5.77424 8.31987 6.14046 8.32031H12.8071C13.1738 8.32031 13.4878 8.45098 13.7491 8.71231C14.0105 8.97365 14.1409 9.28742 14.1405 9.65365V16.3203C14.1405 16.687 14.0098 17.001 13.7485 17.2623C13.4871 17.5236 13.1734 17.6541 12.8071 17.6536H6.14046ZM15.4738 17.6536V8.32031H16.8071V17.6536H15.4738ZM18.1405 17.6536V8.32031H19.4738V17.6536H18.1405Z" fill="white" fill-opacity="0.5"/>
</g>
<defs>
<clipPath id="clip0_2386_63717">
<rect width="16" height="16" fill="white" transform="translate(4.14062 4.9873)"/>
</clipPath>
</defs>
</svg>
