<svg width="21" height="21" viewBox="0 0 21 21" fill="none" xmlns="http://www.w3.org/2000/svg">
<path fill-rule="evenodd" clip-rule="evenodd" d="M9.78508 5.18816C9.59754 5.37569 9.49219 5.63005 9.49219 5.89526V9.89526H5.49219C5.22697 9.89526 4.97262 10.0006 4.78508 10.1882C4.59754 10.3757 4.49219 10.63 4.49219 10.8953C4.49219 11.1605 4.59754 11.4148 4.78508 11.6024C4.97262 11.7899 5.22697 11.8953 5.49219 11.8953H9.49219V15.8953C9.49219 16.1605 9.59754 16.4148 9.78508 16.6024C9.97262 16.7899 10.227 16.8953 10.4922 16.8953C10.7574 16.8953 11.0118 16.7899 11.1993 16.6024C11.3868 16.4148 11.4922 16.1605 11.4922 15.8953V11.8953H15.4922C15.7574 11.8953 16.0118 11.7899 16.1993 11.6024C16.3868 11.4148 16.4922 11.1605 16.4922 10.8953C16.4922 10.63 16.3868 10.3757 16.1993 10.1882C16.0118 10.0006 15.7574 9.89526 15.4922 9.89526H11.4922V5.89526C11.4922 5.63005 11.3868 5.37569 11.1993 5.18816C11.0118 5.00062 10.7574 4.89526 10.4922 4.89526C10.227 4.89526 9.97262 5.00062 9.78508 5.18816Z" fill="#131313"/>
</svg>
