<svg width="18" height="19" viewBox="0 0 18 19" fill="none" xmlns="http://www.w3.org/2000/svg">
<path d="M11.625 11.0581H11.0325L10.8225 10.8556C11.5829 9.97362 12.0008 8.84763 12 7.68311C12 6.71892 11.7141 5.77639 11.1784 4.9747C10.6427 4.17301 9.88137 3.54817 8.99058 3.17919C8.09979 2.81022 7.11959 2.71368 6.17394 2.90178C5.22828 3.08988 4.35964 3.55418 3.67786 4.23596C2.99608 4.91774 2.53178 5.78638 2.34367 6.73204C2.15557 7.6777 2.25211 8.6579 2.62109 9.54869C2.99007 10.4395 3.61491 11.2009 4.4166 11.7365C5.21829 12.2722 6.16082 12.5581 7.125 12.5581C8.3325 12.5581 9.4425 12.1156 10.2975 11.3806L10.5 11.5906V12.1831L14.25 15.9256L15.3675 14.8081L11.625 11.0581ZM7.125 11.0581C5.2575 11.0581 3.75 9.55061 3.75 7.68311C3.75 5.81561 5.2575 4.30811 7.125 4.30811C8.9925 4.30811 10.5 5.81561 10.5 7.68311C10.5 9.55061 8.9925 11.0581 7.125 11.0581Z" fill="white"/>
</svg>
