<svg width="12" height="11" viewBox="0 0 12 11" fill="none" xmlns="http://www.w3.org/2000/svg">
<path d="M2.64749 1.50432C2.74685 1.39769 2.80095 1.25665 2.79837 1.11093C2.7958 0.965201 2.73677 0.826162 2.63371 0.723102C2.53065 0.620042 2.39161 0.561008 2.24589 0.558437C2.10016 0.555866 1.95912 0.609958 1.85249 0.709318L0.352493 2.20932C0.247155 2.31479 0.187988 2.45776 0.187988 2.60682C0.187988 2.75588 0.247155 2.89885 0.352493 3.00432L1.85249 4.50432C1.90399 4.55958 1.96609 4.60391 2.03509 4.63465C2.10409 4.6654 2.17857 4.68193 2.2541 4.68326C2.32963 4.6846 2.40465 4.6707 2.47469 4.64241C2.54473 4.61412 2.60836 4.57201 2.66177 4.5186C2.71519 4.46518 2.75729 4.40156 2.78559 4.33152C2.81388 4.26148 2.82777 4.18645 2.82644 4.11093C2.8251 4.0354 2.80857 3.96091 2.77783 3.89191C2.74709 3.82292 2.70276 3.76082 2.64749 3.70932L2.10749 3.16932H9.74999C9.89918 3.16932 10.0423 3.11005 10.1477 3.00457C10.2532 2.89908 10.3125 2.756 10.3125 2.60682C10.3125 2.45763 10.2532 2.31456 10.1477 2.20907C10.0423 2.10358 9.89918 2.04432 9.74999 2.04432H2.10749L2.64749 1.50432ZM9.35249 6.70932C9.24716 6.81479 9.18799 6.95776 9.18799 7.10682C9.18799 7.25588 9.24716 7.39885 9.35249 7.50432L9.89249 8.04432H2.24999C2.10081 8.04432 1.95773 8.10358 1.85225 8.20907C1.74676 8.31456 1.68749 8.45763 1.68749 8.60682C1.68749 8.756 1.74676 8.89908 1.85225 9.00457C1.95773 9.11006 2.10081 9.16932 2.24999 9.16932H9.89249L9.35249 9.70932C9.29723 9.76081 9.2529 9.82292 9.22216 9.89191C9.19141 9.96091 9.17488 10.0354 9.17355 10.1109C9.17222 10.1865 9.18611 10.2615 9.2144 10.3315C9.24269 10.4016 9.2848 10.4652 9.33821 10.5186C9.39163 10.572 9.45525 10.6141 9.5253 10.6424C9.59534 10.6707 9.67036 10.6846 9.74588 10.6833C9.82141 10.6819 9.8959 10.6654 9.9649 10.6347C10.0339 10.6039 10.096 10.5596 10.1475 10.5043L11.6475 9.00432C11.7528 8.89885 11.812 8.75588 11.812 8.60682C11.812 8.45776 11.7528 8.31479 11.6475 8.20932L10.1475 6.70932C10.042 6.60398 9.89906 6.54481 9.74999 6.54481C9.60093 6.54481 9.45796 6.60398 9.35249 6.70932Z" fill="white"/>
</svg>
