<svg width="12" height="10" viewBox="0 0 12 10" fill="none" xmlns="http://www.w3.org/2000/svg">
<path d="M3.01997 1.46025C3.10829 1.36546 3.15637 1.2401 3.15408 1.11056C3.1518 0.98103 3.09932 0.85744 3.00771 0.765831C2.91611 0.674223 2.79252 0.621748 2.66298 0.619463C2.53345 0.617177 2.40808 0.665259 2.3133 0.753579L0.979967 2.08691C0.886333 2.18066 0.83374 2.30775 0.83374 2.44025C0.83374 2.57275 0.886333 2.69983 0.979967 2.79358L2.3133 4.12691C2.35907 4.17604 2.41428 4.21544 2.47561 4.24277C2.53694 4.27009 2.60315 4.28479 2.67029 4.28597C2.73742 4.28716 2.80411 4.27481 2.86637 4.24966C2.92862 4.22451 2.98518 4.18708 3.03266 4.1396C3.08014 4.09213 3.11757 4.03557 3.14272 3.97331C3.16786 3.91105 3.18021 3.84437 3.17903 3.77723C3.17784 3.7101 3.16315 3.64389 3.13582 3.58255C3.10849 3.52122 3.06909 3.46602 3.01997 3.42025L2.53997 2.94025H9.3333C9.46591 2.94025 9.59309 2.88757 9.68685 2.7938C9.78062 2.70003 9.8333 2.57285 9.8333 2.44025C9.8333 2.30764 9.78062 2.18046 9.68685 2.08669C9.59309 1.99292 9.46591 1.94025 9.3333 1.94025H2.53997L3.01997 1.46025ZM8.97997 6.08691C8.88633 6.18066 8.83374 6.30774 8.83374 6.44025C8.83374 6.57275 8.88633 6.69983 8.97997 6.79358L9.45997 7.27358H2.66663C2.53403 7.27358 2.40685 7.32626 2.31308 7.42003C2.21931 7.51379 2.16663 7.64097 2.16663 7.77358C2.16663 7.90619 2.21931 8.03336 2.31308 8.12713C2.40685 8.2209 2.53403 8.27358 2.66663 8.27358H9.45997L8.97997 8.75358C8.93084 8.79935 8.89144 8.85455 8.86411 8.91589C8.83678 8.97722 8.82209 9.04343 8.82091 9.11056C8.81972 9.1777 8.83207 9.24438 8.85722 9.30664C8.88237 9.3689 8.9198 9.42546 8.96727 9.47294C9.01475 9.52042 9.07131 9.55785 9.13357 9.58299C9.19583 9.60814 9.26251 9.62049 9.32965 9.61931C9.39678 9.61812 9.46299 9.60343 9.52433 9.5761C9.58566 9.54877 9.64086 9.50937 9.68663 9.46025L11.02 8.12691C11.1136 8.03316 11.1662 7.90608 11.1662 7.77358C11.1662 7.64108 11.1136 7.514 11.02 7.42025L9.68663 6.08691C9.59288 5.99328 9.4658 5.94069 9.3333 5.94069C9.2008 5.94069 9.07372 5.99328 8.97997 6.08691Z" fill="white"/>
</svg>
