<svg width="19" height="19" viewBox="0 0 19 19" fill="none" xmlns="http://www.w3.org/2000/svg">
<path d="M18.6668 9.94759C18.6668 14.9183 14.6373 18.9478 9.66669 18.9478C4.696 18.9478 0.666504 14.9183 0.666504 9.94759C0.666504 4.97698 4.696 0.94751 9.66669 0.94751C14.6373 0.94751 18.6668 4.97698 18.6668 9.94759Z" fill="#00A478"/>
<path d="M8.59423 9.76514V7.93787H6.11588V6.33618H13.0414V7.96042H10.563V9.76514H8.59423Z" fill="white"/>
<path fill-rule="evenodd" clip-rule="evenodd" d="M5.05042 9.96816C5.05042 9.35907 7.04236 8.86277 9.5207 8.86277C11.999 8.86277 13.991 9.35907 13.991 9.96816C13.991 10.5773 11.999 11.0735 9.5207 11.0735C7.04236 11.0735 5.05042 10.5773 5.05042 9.96816ZM13.6204 9.96817C13.4583 9.74258 12.1149 9.04325 9.52071 9.04325C6.92656 9.04325 5.58315 9.72002 5.42102 9.96817C5.58315 10.1938 6.92656 10.5321 9.52071 10.5321C12.138 10.5321 13.4583 10.1938 13.6204 9.96817Z" fill="white"/>
<path d="M10.563 10.3291V9.06582C10.2387 9.04326 9.89132 9.0207 9.54388 9.0207C9.21961 9.0207 8.91851 9.0207 8.6174 9.04326V10.3066C8.89535 10.3066 9.21961 10.3291 9.54388 10.3291C9.89132 10.3517 10.2387 10.3517 10.563 10.3291Z" fill="white"/>
<path d="M9.5207 11.0735C9.19643 11.0735 8.89534 11.0736 8.59423 11.051V14.4123H10.5398V11.0285C10.2156 11.051 9.86813 11.0735 9.5207 11.0735Z" fill="white"/>
</svg>
