<svg width="19" height="19" viewBox="0 0 19 19" fill="none" xmlns="http://www.w3.org/2000/svg">
<path d="M7.54517 12.5V6.5C7.54517 6.10218 7.7032 5.72064 7.98451 5.43934C8.26581 5.15804 8.64734 5 9.04517 5H15.7952V4.25C15.7952 3.425 15.1202 2.75 14.2952 2.75H3.79517C3.39734 2.75 3.01581 2.90804 2.73451 3.18934C2.4532 3.47064 2.29517 3.85218 2.29517 4.25V14.75C2.29517 15.1478 2.4532 15.5294 2.73451 15.8107C3.01581 16.092 3.39734 16.25 3.79517 16.25H14.2952C15.1202 16.25 15.7952 15.575 15.7952 14.75V14H9.04517C8.64734 14 8.26581 13.842 7.98451 13.5607C7.7032 13.2794 7.54517 12.8978 7.54517 12.5ZM9.79517 6.5C9.38267 6.5 9.04517 6.8375 9.04517 7.25V11.75C9.04517 12.1625 9.38267 12.5 9.79517 12.5H16.5452V6.5H9.79517ZM12.0452 10.625C11.4227 10.625 10.9202 10.1225 10.9202 9.5C10.9202 8.8775 11.4227 8.375 12.0452 8.375C12.6677 8.375 13.1702 8.8775 13.1702 9.5C13.1702 10.1225 12.6677 10.625 12.0452 10.625Z" fill="white"/>
</svg>
