<svg width="19" height="19" viewBox="0 0 19 19" fill="none" xmlns="http://www.w3.org/2000/svg">
<path d="M2.00146 3.86568C2.00146 2.30944 5.15514 1.04797 9.0452 1.04797C12.9353 1.04797 16.0889 2.30944 16.0889 3.86568V5.274C16.0889 6.83024 12.9353 8.09171 9.0452 8.09171C5.15514 8.09171 2.00146 6.83024 2.00146 5.274V3.86568Z" fill="white" fill-opacity="0.5"/>
<path d="M2.00146 7.73987V10.9094C2.00146 12.4635 5.15514 13.726 9.0452 13.726C12.9353 13.726 16.0889 12.4646 16.0889 10.9083V7.73987C15.6131 8.08261 15.0955 8.3631 14.5485 8.57451C13.0705 9.16615 11.1233 9.50001 9.0452 9.50001C6.9681 9.50001 5.02096 9.1651 3.54291 8.57451C2.99596 8.36312 2.47829 8.08263 2.00252 7.73987H2.00146Z" fill="white" fill-opacity="0.5"/>
<path d="M16.0889 13.3753C15.6131 13.7176 15.0954 13.9978 14.5485 14.2088C13.0694 14.8005 11.1233 15.1343 9.04414 15.1343C6.96705 15.1343 5.01991 14.8005 3.54185 14.2088C2.99491 13.9974 2.47725 13.7169 2.00146 13.3742V15.1343C2.00146 16.6906 5.15514 17.9521 9.0452 17.9521C12.9353 17.9521 16.0889 16.6906 16.0889 15.1343V13.3753Z" fill="white" fill-opacity="0.5"/>
</svg>
