<svg width="42" height="42" viewBox="0 0 42 42" fill="none" xmlns="http://www.w3.org/2000/svg">
<rect x="0.5" y="0.5" width="41" height="41" rx="20.5" fill="#5200FF"/>
<path d="M8.14165 18.6641L8.14163 16.1962L11.39 15.5212C12.3219 15.6129 12.6934 15.8458 13.0986 16.5548C13.4062 15.6895 13.7816 15.3534 14.723 14.9516L18.2456 14.3399L18.2456 16.829C18.0728 17.4415 17.8597 17.6789 17.3173 17.9259L9.32288 19.4657C8.73347 19.4341 8.43998 19.3347 8.14165 18.6641Z" fill="white"/>
<path fill-rule="evenodd" clip-rule="evenodd" d="M30.5583 16.3536L12.145 19.677C12.3096 23.4502 13.9466 26.7907 18.5408 27.6601L32.3097 27.5812L34.1512 20.8446C34.6178 18.8116 33.4853 16.6276 30.5583 16.3536ZM30.0026 21.2987C30.5725 21.2987 31.0345 20.8367 31.0345 20.2668C31.0345 19.6969 30.5725 19.2349 30.0026 19.2349C29.4327 19.2349 28.9707 19.6969 28.9707 20.2668C28.9707 20.8367 29.4327 21.2987 30.0026 21.2987Z" fill="white"/>
</svg>
