<svg width="19" height="20" viewBox="0 0 19 20" fill="none" xmlns="http://www.w3.org/2000/svg">
<g clip-path="url(#clip0_794_28344)">
<path d="M18.3658 6.12874C18.263 5.74797 18.0624 5.40084 17.7842 5.12192C17.5059 4.843 17.1595 4.64202 16.7797 4.539C15.3889 4.15887 9.79204 4.15887 9.79204 4.15887C9.79204 4.15887 4.19496 4.17041 2.8044 4.55054C2.42455 4.65358 2.07824 4.85456 1.79998 5.13348C1.52172 5.4124 1.32121 5.75952 1.21842 6.14027C0.797759 8.61716 0.634557 12.3911 1.22993 14.7688C1.33272 15.1495 1.53323 15.4966 1.81149 15.7756C2.08975 16.0545 2.43605 16.2555 2.81591 16.3585C4.20658 16.7386 9.80354 16.7386 9.80354 16.7386C9.80354 16.7386 15.4005 16.7386 16.7912 16.3585C17.171 16.2555 17.5173 16.0545 17.7956 15.7756C18.0739 15.4966 18.2744 15.1495 18.3772 14.7688C18.8207 12.2885 18.9575 8.51685 18.3657 6.12885L18.3658 6.12874Z" fill="#FF0000"/>
<path d="M8.01074 13.1444L12.6538 10.4488L8.01074 7.75305V13.1444Z" fill="white"/>
</g>
<defs>
<clipPath id="clip0_794_28344">
<rect width="17.92" height="12.5798" fill="white" transform="translate(0.841064 4.15887)"/>
</clipPath>
</defs>
</svg>
